# xmcd
#
# Track frame offsets:
#	150
#	16636
#	32693
#	50681
#	66125
#	83868
#	95070
#	113694
#	125003
#	142458
#	158630
#	174038
#	188402
#	202444
#	216007
#	232688
#	245438
#	260244
#	275454
#	289826
#	303518
#
# Disc length: 4224 seconds
#
# Revision: 1
# Processed by: cddbd v1.5.2PL0 Copyright (c) Steve Scherf et al.
# Submitted via: audiograbber 1.83.01
#
DISCID=31107e15
DTITLE=Diversen - Ik hou van Holland 2
DYEAR=1900
DGENRE=
TTITLE0=Herman Brood and His Wild Romance - Saturday night
TTITLE1=Guus Meeuwis - Ik wil je
TTITLE2=Andre Hazes - Bloed zweet en tranen
TTITLE3=Rudi Carrell - Samen een straatje om
TTITLE4=Total Touch - Touch me there
TTITLE5=Peter Koelewijn En Zijn Rockets - Marijke
TTITLE6=BZN - Mon amour
TTITLE7=Heintje - Mama
TTITLE8=Ruth Jacott - Leun op mij
TTITLE9=Alex - Een bossie rooie rozen
TTITLE10=Benny Neyman - Ik weet niet hoe
TTITLE11=Jody Bernal - Que si, que no
TTITLE12=Marianne Weber - Ik weet dat er een ander is
TTITLE13=George Baker Selection - Dear Ann
TTITLE14=Def Rhymz - Schudden
TTITLE15=Rita Corita - Koffie, koffie, lekker bakkie koffie
TTITLE16=Astrid Nijgh - Ik doe wat ik doe
TTITLE17=Drukwerk - Je loog tegen mij
TTITLE18=Gerard Cox - 't Is weer voorbij die mooie zomer
TTITLE19=Shocking Blue - Never marry a railroad man
TTITLE20=Henk and Henk - Sinterklaas
EXTD=
EXTT0=
EXTT1=
EXTT2=
EXTT3=
EXTT4=
EXTT5=
EXTT6=
EXTT7=
EXTT8=
EXTT9=
EXTT10=
EXTT11=
EXTT12=
EXTT13=
EXTT14=
EXTT15=
EXTT16=
EXTT17=
EXTT18=
EXTT19=
EXTT20=
PLAYORDER=
